<svg width="64" height="64" viewBox="0 0 64 64" xmlns="http://www.w3.org/2000/svg"><path d="M5 29C5 14.6 16.6 3 31 3h11c14.4 0 26 11.6 26 26S56.4 55 42 55H31L12 62l5-12C9.8 45.6 5 37.8 5 29Z" fill="#fff" stroke="#2563EB" stroke-width="5"/><path d="M19 40V20h10l13 19V20h10v20H42L29 21v19H19Z" fill="#0F172A"/><path d="M39 40l15-19-2 10h9L45 50l2-11-8 1Z" fill="#2563EB"/><circle cx="55" cy="24" r="2.5" fill="#22C55E"/><circle cx="55" cy="32" r="2.5" fill="#22C55E"/><circle cx="55" cy="40" r="2.5" fill="#22C55E"/></svg>
